<mxfile host="app.diagrams.net" modified="2021-01-08T07:05:59.689Z" agent="5.0 (Windows NT 10.0; Win64; x64) AppleWebKit/537.36 (KHTML, like Gecko) Chrome/87.0.4280.141 Safari/537.36" etag="iBfEuiLuSNEIuGuoxrQX" version="14.1.8" type="github">
  <diagram id="sNW_FNxLbKgOF1Vbj74C" name="第 1 页">
    <mxGraphModel dx="1108" dy="450" grid="1" gridSize="10" guides="1" tooltips="1" connect="1" arrows="1" fold="1" page="1" pageScale="1" pageWidth="827" pageHeight="1169" math="0" shadow="0">
      <root>
        <mxCell id="0" />
        <mxCell id="1" parent="0" />
        <mxCell id="T52ww4wS0TigTcZgaQVw-1" value="" style="endArrow=none;html=1;" parent="1" edge="1">
          <mxGeometry width="50" height="50" relative="1" as="geometry">
            <mxPoint x="240" y="240" as="sourcePoint" />
            <mxPoint x="720" y="240" as="targetPoint" />
          </mxGeometry>
        </mxCell>
        <mxCell id="T52ww4wS0TigTcZgaQVw-2" value="" style="endArrow=none;html=1;" parent="1" edge="1">
          <mxGeometry width="50" height="50" relative="1" as="geometry">
            <mxPoint x="240" y="360" as="sourcePoint" />
            <mxPoint x="240" y="40" as="targetPoint" />
          </mxGeometry>
        </mxCell>
        <mxCell id="T52ww4wS0TigTcZgaQVw-3" value="" style="endArrow=none;html=1;" parent="1" edge="1">
          <mxGeometry width="50" height="50" relative="1" as="geometry">
            <mxPoint x="250" y="220" as="sourcePoint" />
            <mxPoint x="280" y="220" as="targetPoint" />
          </mxGeometry>
        </mxCell>
        <mxCell id="T52ww4wS0TigTcZgaQVw-4" value="" style="endArrow=none;html=1;" parent="1" edge="1">
          <mxGeometry width="50" height="50" relative="1" as="geometry">
            <mxPoint x="280" y="220" as="sourcePoint" />
            <mxPoint x="320" y="80" as="targetPoint" />
          </mxGeometry>
        </mxCell>
        <mxCell id="T52ww4wS0TigTcZgaQVw-5" value="" style="endArrow=none;html=1;" parent="1" edge="1">
          <mxGeometry width="50" height="50" relative="1" as="geometry">
            <mxPoint x="320" y="80" as="sourcePoint" />
            <mxPoint x="480" y="80" as="targetPoint" />
          </mxGeometry>
        </mxCell>
        <mxCell id="T52ww4wS0TigTcZgaQVw-6" value="" style="endArrow=none;html=1;" parent="1" edge="1">
          <mxGeometry width="50" height="50" relative="1" as="geometry">
            <mxPoint x="480" y="80" as="sourcePoint" />
            <mxPoint x="520" y="220" as="targetPoint" />
          </mxGeometry>
        </mxCell>
        <mxCell id="T52ww4wS0TigTcZgaQVw-7" value="" style="endArrow=none;html=1;" parent="1" edge="1">
          <mxGeometry width="50" height="50" relative="1" as="geometry">
            <mxPoint x="520" y="220" as="sourcePoint" />
            <mxPoint x="560" y="220" as="targetPoint" />
          </mxGeometry>
        </mxCell>
        <mxCell id="T52ww4wS0TigTcZgaQVw-8" value="" style="endArrow=none;html=1;" parent="1" edge="1">
          <mxGeometry width="50" height="50" relative="1" as="geometry">
            <mxPoint x="580" y="260" as="sourcePoint" />
            <mxPoint x="560" y="220" as="targetPoint" />
          </mxGeometry>
        </mxCell>
        <mxCell id="T52ww4wS0TigTcZgaQVw-9" value="" style="endArrow=none;html=1;" parent="1" edge="1">
          <mxGeometry width="50" height="50" relative="1" as="geometry">
            <mxPoint x="580" y="260" as="sourcePoint" />
            <mxPoint x="620" y="260" as="targetPoint" />
            <Array as="points">
              <mxPoint x="600" y="260" />
            </Array>
          </mxGeometry>
        </mxCell>
        <mxCell id="T52ww4wS0TigTcZgaQVw-10" value="" style="endArrow=none;html=1;" parent="1" edge="1">
          <mxGeometry width="50" height="50" relative="1" as="geometry">
            <mxPoint x="620" y="260" as="sourcePoint" />
            <mxPoint x="650" y="310" as="targetPoint" />
          </mxGeometry>
        </mxCell>
        <mxCell id="T52ww4wS0TigTcZgaQVw-11" value="" style="endArrow=none;html=1;" parent="1" edge="1">
          <mxGeometry width="50" height="50" relative="1" as="geometry">
            <mxPoint x="650" y="310" as="sourcePoint" />
            <mxPoint x="683" y="310" as="targetPoint" />
          </mxGeometry>
        </mxCell>
        <mxCell id="T52ww4wS0TigTcZgaQVw-12" value="" style="endArrow=none;html=1;" parent="1" edge="1">
          <mxGeometry width="50" height="50" relative="1" as="geometry">
            <mxPoint x="320" y="340" as="sourcePoint" />
            <mxPoint x="320" y="80" as="targetPoint" />
          </mxGeometry>
        </mxCell>
        <mxCell id="T52ww4wS0TigTcZgaQVw-13" value="" style="endArrow=none;html=1;" parent="1" edge="1">
          <mxGeometry width="50" height="50" relative="1" as="geometry">
            <mxPoint x="480" y="290" as="sourcePoint" />
            <mxPoint x="480" y="80" as="targetPoint" />
          </mxGeometry>
        </mxCell>
        <mxCell id="T52ww4wS0TigTcZgaQVw-14" value="" style="endArrow=none;html=1;" parent="1" edge="1">
          <mxGeometry width="50" height="50" relative="1" as="geometry">
            <mxPoint x="500" y="340" as="sourcePoint" />
            <mxPoint x="500" y="160" as="targetPoint" />
          </mxGeometry>
        </mxCell>
        <mxCell id="T52ww4wS0TigTcZgaQVw-15" value="" style="endArrow=classic;startArrow=classic;html=1;" parent="1" edge="1">
          <mxGeometry width="50" height="50" relative="1" as="geometry">
            <mxPoint x="320" y="270" as="sourcePoint" />
            <mxPoint x="480" y="270" as="targetPoint" />
          </mxGeometry>
        </mxCell>
        <mxCell id="T52ww4wS0TigTcZgaQVw-16" value="" style="endArrow=classic;startArrow=classic;html=1;" parent="1" edge="1">
          <mxGeometry width="50" height="50" relative="1" as="geometry">
            <mxPoint x="320" y="320" as="sourcePoint" />
            <mxPoint x="500" y="320" as="targetPoint" />
          </mxGeometry>
        </mxCell>
        <mxCell id="T52ww4wS0TigTcZgaQVw-17" value="" style="endArrow=none;html=1;" parent="1" edge="1">
          <mxGeometry width="50" height="50" relative="1" as="geometry">
            <mxPoint x="650" y="310" as="sourcePoint" />
            <mxPoint x="652" y="240" as="targetPoint" />
          </mxGeometry>
        </mxCell>
        <mxCell id="T52ww4wS0TigTcZgaQVw-18" value="" style="endArrow=classic;startArrow=classic;html=1;" parent="1" edge="1">
          <mxGeometry width="50" height="50" relative="1" as="geometry">
            <mxPoint x="500" y="270" as="sourcePoint" />
            <mxPoint x="650" y="270" as="targetPoint" />
          </mxGeometry>
        </mxCell>
        <mxCell id="T52ww4wS0TigTcZgaQVw-19" value="n1" style="text;html=1;strokeColor=none;fillColor=none;align=center;verticalAlign=middle;whiteSpace=wrap;rounded=0;" parent="1" vertex="1">
          <mxGeometry x="374" y="50" width="40" height="20" as="geometry" />
        </mxCell>
        <mxCell id="T52ww4wS0TigTcZgaQVw-20" value="t1" style="text;html=1;strokeColor=none;fillColor=none;align=center;verticalAlign=middle;whiteSpace=wrap;rounded=0;" parent="1" vertex="1">
          <mxGeometry x="374" y="250" width="40" height="20" as="geometry" />
        </mxCell>
        <mxCell id="T52ww4wS0TigTcZgaQVw-21" value="tzh" style="text;html=1;strokeColor=none;fillColor=none;align=center;verticalAlign=middle;whiteSpace=wrap;rounded=0;" parent="1" vertex="1">
          <mxGeometry x="374" y="300" width="40" height="20" as="geometry" />
        </mxCell>
        <mxCell id="T52ww4wS0TigTcZgaQVw-22" value="n2" style="text;html=1;strokeColor=none;fillColor=none;align=center;verticalAlign=middle;whiteSpace=wrap;rounded=0;" parent="1" vertex="1">
          <mxGeometry x="500" y="140" width="40" height="20" as="geometry" />
        </mxCell>
        <mxCell id="T52ww4wS0TigTcZgaQVw-23" value="t0" style="text;html=1;strokeColor=none;fillColor=none;align=center;verticalAlign=middle;whiteSpace=wrap;rounded=0;" parent="1" vertex="1">
          <mxGeometry x="550" y="250" width="40" height="20" as="geometry" />
        </mxCell>
        <mxCell id="O3FlVT3Sgc3cTMy7qthc-1" value="轧机速度图" style="text;html=1;strokeColor=none;fillColor=none;align=center;verticalAlign=middle;whiteSpace=wrap;rounded=0;" vertex="1" parent="1">
          <mxGeometry x="374" y="10" width="66" height="20" as="geometry" />
        </mxCell>
      </root>
    </mxGraphModel>
  </diagram>
</mxfile>
